 <svg  version="1.0" xmlns="http://www.w3.org/2000/svg"  width="100.000000pt" height="100.000000pt" viewBox="0 0 100.000000 100.000000"  preserveAspectRatio="xMidYMid meet">  <g transform="translate(0.000000,100.000000) scale(0.100000,-0.100000)" fill="#b39388" stroke="none"> <path d="M457 760 c-51 -40 -42 -104 34 -221 16 -25 29 -49 29 -52 0 -4 -43 -7 -95 -7 l-95 0 0 134 c0 132 0 135 23 139 12 2 -5 4 -38 5 -39 0 -51 -2 -35 -7 25 -7 25 -8 28 -138 l3 -130 -57 -5 c-67 -6 -94 -30 -94 -83 0 -41 38 -75 84 -75 53 1 86 41 86 105 l0 36 102 -3 101 -3 18 -50 c37 -105 14 -195 -50 -195 -66 0 -96 91 -53 164 15 25 17 36 9 36 -20 0 -47 -66 -47 -114 0 -117 141 -144 171 -34 9 35 8 56 -8 120 l-19 78 68 0 68 0 0 -44 c0 -59 29 -96 76 -96 47 0 69 13 84 49 24 60 -25 111 -108 111 l-43 0 3 133 c3 128 4 132 25 132 12 0 25 4 29 8 4 4 -22 6 -57 6 -35 -1 -52 -4 -36 -6 l27 -4 0 -134 0 -133 -74 -4 -75 -3 -16 35 c-9 19 -31 57 -47 83 -53 83 -39 167 28 167 47 0 62 -66 30 -129 -9 -17 -12 -31 -7 -31 18 0 41 57 41 99 0 31 -6 44 -26 60 -33 26 -54 26 -87 1z m-150 -346 c-2 -25 -12 -53 -20 -62 -20 -19 -73 -20 -91 -1 -48 50 -10 109 70 109 l47 0 -6 -46z m507 31 c24 -25 29 -54 12 -80 -44 -67 -126 -25 -126 66 0 28 1 29 49 29 31 0 55 -6 65 -15z"/> </g> </svg> 